<svg xmlns="http://www.w3.org/2000/svg" viewBox="0 0 64 64">
  <defs>
    <linearGradient id="bg" x1="0%" y1="0%" x2="100%" y2="100%">
      <stop offset="0%" style="stop-color:#004d00"/>
      <stop offset="100%" style="stop-color:#068406"/>
    </linearGradient>
  </defs>
  <!-- Background rounded square -->
  <rect width="64" height="64" rx="14" fill="url(#bg)"/>
  <!-- Shield outline -->
  <path d="M32 8C32 8 14 14 14 28c0 14 18 28 18 28s18-14 18-28C50 14 32 8 32 8z" fill="none" stroke="white" stroke-width="2.5" opacity="0.3"/>
  <!-- License plate shape -->
  <rect x="17" y="22" width="30" height="16" rx="3" fill="white"/>
  <!-- Plate text lines -->
  <rect x="21" y="26" width="22" height="3" rx="1" fill="#006300"/>
  <rect x="23" y="31" width="18" height="3" rx="1" fill="#006300" opacity="0.6"/>
  <!-- Small scan lines -->
  <line x1="13" y1="30" x2="17" y2="30" stroke="#f3c423" stroke-width="1.5" stroke-linecap="round"/>
  <line x1="47" y1="30" x2="51" y2="30" stroke="#f3c423" stroke-width="1.5" stroke-linecap="round"/>
  <!-- Gate barrier -->
  <rect x="29" y="42" width="6" height="12" rx="1" fill="white" opacity="0.7"/>
  <rect x="20" y="42" width="24" height="3" rx="1.5" fill="#f3c423"/>
</svg>
